<svg width="48" height="48" viewBox="0 0 48 48" fill="none" xmlns="http://www.w3.org/2000/svg">
<path d="M46.5 39H43.5V18C43.8978 18 44.2794 17.842 44.5607 17.5607C44.842 17.2794 45 16.8978 45 16.5C45 16.1022 44.842 15.7206 44.5607 15.4393C44.2794 15.158 43.8978 15 43.5 15H34.5V9C34.8978 9 35.2794 8.84196 35.5607 8.56066C35.842 8.27936 36 7.89782 36 7.5C36 7.10218 35.842 6.72064 35.5607 6.43934C35.2794 6.15804 34.8978 6 34.5 6H7.5C7.10218 6 6.72064 6.15804 6.43934 6.43934C6.15804 6.72064 6 7.10218 6 7.5C6 7.89782 6.15804 8.27936 6.43934 8.56066C6.72064 8.84196 7.10218 9 7.5 9V39H4.5C4.10218 39 3.72064 39.158 3.43934 39.4393C3.15804 39.7206 3 40.1022 3 40.5C3 40.8978 3.15804 41.2794 3.43934 41.5607C3.72064 41.842 4.10218 42 4.5 42H46.5C46.8978 42 47.2794 41.842 47.5607 41.5607C47.842 41.2794 48 40.8978 48 40.5C48 40.1022 47.842 39.7206 47.5607 39.4393C47.2794 39.158 46.8978 39 46.5 39ZM40.5 18V39H34.5V18H40.5ZM10.5 9H31.5V39H27V30C27 29.6022 26.842 29.2206 26.5607 28.9393C26.2794 28.658 25.8978 28.5 25.5 28.5H16.5C16.1022 28.5 15.7206 28.658 15.4393 28.9393C15.158 29.2206 15 29.6022 15 30V39H10.5V9ZM24 39H18V31.5H24V39ZM13.5 15C13.5 14.6022 13.658 14.2206 13.9393 13.9393C14.2206 13.658 14.6022 13.5 15 13.5H18C18.3978 13.5 18.7794 13.658 19.0607 13.9393C19.342 14.2206 19.5 14.6022 19.5 15C19.5 15.3978 19.342 15.7794 19.0607 16.0607C18.7794 16.342 18.3978 16.5 18 16.5H15C14.6022 16.5 14.2206 16.342 13.9393 16.0607C13.658 15.7794 13.5 15.3978 13.5 15ZM22.5 15C22.5 14.6022 22.658 14.2206 22.9393 13.9393C23.2206 13.658 23.6022 13.5 24 13.5H27C27.3978 13.5 27.7794 13.658 28.0607 13.9393C28.342 14.2206 28.5 14.6022 28.5 15C28.5 15.3978 28.342 15.7794 28.0607 16.0607C27.7794 16.342 27.3978 16.5 27 16.5H24C23.6022 16.5 23.2206 16.342 22.9393 16.0607C22.658 15.7794 22.5 15.3978 22.5 15ZM13.5 22.5C13.5 22.1022 13.658 21.7206 13.9393 21.4393C14.2206 21.158 14.6022 21 15 21H18C18.3978 21 18.7794 21.158 19.0607 21.4393C19.342 21.7206 19.5 22.1022 19.5 22.5C19.5 22.8978 19.342 23.2794 19.0607 23.5607C18.7794 23.842 18.3978 24 18 24H15C14.6022 24 14.2206 23.842 13.9393 23.5607C13.658 23.2794 13.5 22.8978 13.5 22.5ZM22.5 22.5C22.5 22.1022 22.658 21.7206 22.9393 21.4393C23.2206 21.158 23.6022 21 24 21H27C27.3978 21 27.7794 21.158 28.0607 21.4393C28.342 21.7206 28.5 22.1022 28.5 22.5C28.5 22.8978 28.342 23.2794 28.0607 23.5607C27.7794 23.842 27.3978 24 27 24H24C23.6022 24 23.2206 23.842 22.9393 23.5607C22.658 23.2794 22.5 22.8978 22.5 22.5Z" fill="#343330"/>
</svg>
