<svg width="49" height="48" viewBox="0 0 49 48" fill="none" xmlns="http://www.w3.org/2000/svg">
<path d="M39.6667 7.5H9.66669C8.47321 7.5 7.32862 7.97411 6.48471 8.81802C5.64079 9.66193 5.16669 10.8065 5.16669 12V33C5.16669 34.1935 5.64079 35.3381 6.48471 36.182C7.32862 37.0259 8.47321 37.5 9.66669 37.5H23.1667V40.5H18.6667C18.2689 40.5 17.8873 40.658 17.606 40.9393C17.3247 41.2206 17.1667 41.6022 17.1667 42C17.1667 42.3978 17.3247 42.7794 17.606 43.0607C17.8873 43.342 18.2689 43.5 18.6667 43.5H30.6667C31.0645 43.5 31.446 43.342 31.7273 43.0607C32.0087 42.7794 32.1667 42.3978 32.1667 42C32.1667 41.6022 32.0087 41.2206 31.7273 40.9393C31.446 40.658 31.0645 40.5 30.6667 40.5H26.1667V37.5H39.6667C40.8602 37.5 42.0048 37.0259 42.8487 36.182C43.6926 35.3381 44.1667 34.1935 44.1667 33V12C44.1667 10.8065 43.6926 9.66193 42.8487 8.81802C42.0048 7.97411 40.8602 7.5 39.6667 7.5ZM9.66669 10.5H39.6667C40.0645 10.5 40.446 10.658 40.7273 10.9393C41.0087 11.2206 41.1667 11.6022 41.1667 12V27H8.16669V12C8.16669 11.6022 8.32472 11.2206 8.60603 10.9393C8.88733 10.658 9.26886 10.5 9.66669 10.5ZM39.6667 34.5H9.66669C9.26886 34.5 8.88733 34.342 8.60603 34.0607C8.32472 33.7794 8.16669 33.3978 8.16669 33V30H41.1667V33C41.1667 33.3978 41.0087 33.7794 40.7273 34.0607C40.446 34.342 40.0645 34.5 39.6667 34.5Z" fill="#343330"/>
</svg>
