<svg width="48" height="48" viewBox="0 0 48 48" fill="none" xmlns="http://www.w3.org/2000/svg">
<path d="M42.4744 10.5769L24.4744 4.57686C24.1665 4.47422 23.8335 4.47422 23.5256 4.57686L5.52562 10.5769C5.22695 10.6764 4.96717 10.8675 4.78309 11.1229C4.59902 11.3783 4.49998 11.6852 4.5 12V27C4.5 27.3978 4.65804 27.7793 4.93934 28.0606C5.22064 28.342 5.60218 28.5 6 28.5C6.39782 28.5 6.77936 28.342 7.06066 28.0606C7.34196 27.7793 7.5 27.3978 7.5 27V14.0812L13.7981 16.1794C12.1248 18.8827 11.5927 22.1397 12.3186 25.2351C13.0446 28.3304 14.9692 31.0112 17.67 32.6887C14.295 34.0125 11.3775 36.4069 9.24375 39.6806C9.13278 39.8455 9.0557 40.0309 9.01699 40.2259C8.97828 40.4209 8.97871 40.6216 9.01826 40.8164C9.05782 41.0112 9.1357 41.1962 9.24738 41.3607C9.35906 41.5251 9.50231 41.6657 9.66882 41.7743C9.83532 41.8829 10.0217 41.9574 10.2173 41.9933C10.4128 42.0292 10.6135 42.0259 10.8077 41.9836C11.0019 41.9412 11.1858 41.8607 11.3487 41.7467C11.5115 41.6327 11.65 41.4874 11.7563 41.3194C14.5819 36.9844 19.0444 34.5 24 34.5C28.9556 34.5 33.4181 36.9844 36.2438 41.3194C36.4638 41.6463 36.8036 41.8736 37.1898 41.952C37.5761 42.0304 37.9776 41.9537 38.3077 41.7384C38.6378 41.5231 38.8699 41.1865 38.9539 40.8015C39.0378 40.4164 38.9668 40.0138 38.7562 39.6806C36.6225 36.4069 33.6937 34.0125 30.33 32.6887C33.0282 31.0113 34.951 28.3322 35.6768 25.2391C36.4027 22.146 35.8722 18.8913 34.2019 16.1887L42.4744 13.4325C42.7731 13.333 43.033 13.142 43.2171 12.8866C43.4012 12.6311 43.5003 12.3242 43.5003 12.0094C43.5003 11.6945 43.4012 11.3876 43.2171 11.1322C43.033 10.8767 42.7731 10.6857 42.4744 10.5862V10.5769ZM33 22.5C33.0004 23.9228 32.6634 25.3255 32.0168 26.5929C31.3701 27.8603 30.4322 28.9564 29.2799 29.7911C28.1276 30.6258 26.7938 31.1754 25.388 31.3949C23.9821 31.6143 22.5443 31.4973 21.1925 31.0534C19.8406 30.6096 18.6133 29.8515 17.6111 28.8415C16.609 27.8314 15.8606 26.5982 15.4273 25.2429C14.9941 23.8876 14.8884 22.4489 15.1188 21.0448C15.3493 19.6407 15.9094 18.3113 16.7531 17.1656L23.5256 19.4156C23.8335 19.5183 24.1665 19.5183 24.4744 19.4156L31.2469 17.1656C32.3865 18.7106 33.0009 20.5802 33 22.5ZM24 16.4194L10.7437 12L24 7.58061L37.2562 12L24 16.4194Z" fill="#343330"/>
</svg>
