<svg width="49" height="48" viewBox="0 0 49 48" fill="none" xmlns="http://www.w3.org/2000/svg">
<path d="M41.3333 12H28.454L34.8946 5.56123C35.1761 5.27977 35.3342 4.89803 35.3342 4.49998C35.3342 4.10193 35.1761 3.72019 34.8946 3.43873C34.6131 3.15727 34.2314 2.99915 33.8333 2.99915C33.4353 2.99915 33.0536 3.15727 32.7721 3.43873L24.8333 11.3794L16.8946 3.43873C16.7552 3.29936 16.5898 3.18881 16.4077 3.11339C16.2256 3.03797 16.0304 2.99915 15.8333 2.99915C15.6363 2.99915 15.4411 3.03797 15.259 3.11339C15.0769 3.18881 14.9115 3.29936 14.7721 3.43873C14.4906 3.72019 14.3325 4.10193 14.3325 4.49998C14.3325 4.89803 14.4906 5.27977 14.7721 5.56123L21.2127 12H8.33334C7.53769 12 6.77463 12.3161 6.21202 12.8787C5.64941 13.4413 5.33334 14.2043 5.33334 15V37.5C5.33334 38.2956 5.64941 39.0587 6.21202 39.6213C6.77463 40.1839 7.53769 40.5 8.33334 40.5H41.3333C42.129 40.5 42.8921 40.1839 43.4547 39.6213C44.0173 39.0587 44.3333 38.2956 44.3333 37.5V15C44.3333 14.2043 44.0173 13.4413 43.4547 12.8787C42.8921 12.3161 42.129 12 41.3333 12ZM8.33334 15H27.8333V37.5H8.33334V15ZM41.3333 37.5H30.8333V15H41.3333V37.5ZM38.3333 21.75C38.3333 22.195 38.2014 22.63 37.9541 23C37.7069 23.37 37.3555 23.6584 36.9444 23.8287C36.5332 23.999 36.0808 24.0436 35.6444 23.9567C35.2079 23.8699 34.807 23.6556 34.4924 23.341C34.1777 23.0263 33.9634 22.6254 33.8766 22.1889C33.7898 21.7525 33.8343 21.3001 34.0046 20.8889C34.1749 20.4778 34.4633 20.1264 34.8333 19.8792C35.2033 19.6319 35.6383 19.5 36.0833 19.5C36.6801 19.5 37.2524 19.737 37.6743 20.159C38.0963 20.5809 38.3333 21.1532 38.3333 21.75ZM38.3333 30.75C38.3333 31.195 38.2014 31.63 37.9541 32C37.7069 32.37 37.3555 32.6584 36.9444 32.8287C36.5332 32.999 36.0808 33.0436 35.6444 32.9567C35.2079 32.8699 34.807 32.6556 34.4924 32.341C34.1777 32.0263 33.9634 31.6254 33.8766 31.1889C33.7898 30.7525 33.8343 30.3001 34.0046 29.8889C34.1749 29.4778 34.4633 29.1264 34.8333 28.8792C35.2033 28.6319 35.6383 28.5 36.0833 28.5C36.6801 28.5 37.2524 28.737 37.6743 29.159C38.0963 29.5809 38.3333 30.1532 38.3333 30.75Z" fill="#343330"/>
</svg>
